{
.appVersion = "1230";
copyright = MIT;
date = "2019-09-19 12:52:43 +0000";
designer = "Gelehrte Crest";
designerURL = "http://www.gelehrte.com";
familyName = Norvrandt;
fontMaster = (
{
ascender = 800;
capHeight = 700;
descender = -200;
id = "FC429158-EA96-492C-B709-B39596C20987";
xHeight = 500;
}
);
glyphs = (
{
glyphname = A;
lastChange = "2019-09-19 12:14:20 +0000";
layers = (
{
layerId = "FC429158-EA96-492C-B709-B39596C20987";
paths = (
{
closed = 1;
nodes = (
"449 433 LINE",
"449 433 OFFCURVE",
"390 406 OFFCURVE",
"365 396 CURVE",
"344 387 OFFCURVE",
"297 371 OFFCURVE",
"297 371 CURVE",
"287 539 LINE",
"183 249 LINE",
"183 249 OFFCURVE",
"249 303 OFFCURVE",
"269 310 CURVE",
"290 318 OFFCURVE",
"317 328 OFFCURVE",
"339 313 CURVE",
"375 288 OFFCURVE",
"447 186 OFFCURVE",
"477 161 CURVE",
"489 152 OFFCURVE",
"514 158 OFFCURVE",
"523 162 CURVE",
"529 164 OFFCURVE",
"532 173 OFFCURVE",
"532 180 CURVE",
"535 265 OFFCURVE",
"538 676 OFFCURVE",
"538 676 CURVE",
"510 663 LINE",
"510 663 OFFCURVE",
"508 710 OFFCURVE",
"515 724 CURVE",
"523 735 OFFCURVE",
"544 733 OFFCURVE",
"556 740 CURVE",
"572 748 OFFCURVE",
"590 767 OFFCURVE",
"608 774 CURVE",
"626 781 OFFCURVE",
"666 780 OFFCURVE",
"666 780 CURVE",
"666 237 LINE",
"666 237 OFFCURVE",
"495 63 OFFCURVE",
"449 28 CURVE",
"435 16 OFFCURVE",
"409 14 OFFCURVE",
"395 25 CURVE",
"359 53 OFFCURVE",
"266 165 OFFCURVE",
"235 192 CURVE",
"227 199 OFFCURVE",
"213 199 OFFCURVE",
"205 193 CURVE",
"179 170 OFFCURVE",
"104 80 OFFCURVE",
"75 59 CURVE",
"65 51 OFFCURVE",
"45 55 OFFCURVE",
"38 65 CURVE",
"31 75 OFFCURVE",
"27 102 OFFCURVE",
"34 118 CURVE",
"70 210 OFFCURVE",
"216 521 OFFCURVE",
"256 616 CURVE",
"266 640 OFFCURVE",
"274 691 OFFCURVE",
"274 691 CURVE",
"392 755 LINE",
"454 782 LINE"
);
}
);
width = 696;
}
);
unicode = 0041;
},
{
glyphname = B;
lastChange = "2019-09-19 12:14:46 +0000";
layers = (
{
hints = (
{
horizontal = 1;
place = "{135, 46}";
type = Stem;
},
{
horizontal = 1;
place = "{423, 45}";
type = Stem;
}
);
layerId = "FC429158-EA96-492C-B709-B39596C20987";
paths = (
{
closed = 1;
nodes = (
"30 5 OFFCURVE",
"478 8 OFFCURVE",
"573 9 CURVE SMOOTH",
"601 9 OFFCURVE",
"614 47 OFFCURVE",
"616 73 CURVE",
"616 198 OFFCURVE",
"616 733 OFFCURVE",
"616 765 CURVE",
"616 765 OFFCURVE",
"560 771 OFFCURVE",
"535 758 CURVE",
"512 745 OFFCURVE",
"487 715 OFFCURVE",
"482 685 CURVE SMOOTH",
"473 629 OFFCURVE",
"474 418 OFFCURVE",
"473 418 CURVE SMOOTH",
"247 420 LINE",
"248 770 LINE",
"248 770 OFFCURVE",
"194 775 OFFCURVE",
"172 763 CURVE SMOOTH",
"148 750 OFFCURVE",
"108 731 OFFCURVE",
"106 699 CURVE",
"106 567 OFFCURVE",
"106 86 OFFCURVE",
"107 86 CURVE",
"107 86 OFFCURVE",
"56 69 OFFCURVE",
"46 55 CURVE SMOOTH",
"36 40 OFFCURVE",
"30 5 OFFCURVE",
"30 5 CURVE SMOOTH"
);
},
{
closed = 1;
nodes = (
"245 333 LINE",
"475 333 LINE",
"475 89 LINE",
"245 89 LINE"
);
}
);
width = 646;
}
);
unicode = 0042;
},
{
glyphname = C;
lastChange = "2019-09-19 12:15:06 +0000";
layers = (
{
layerId = "FC429158-EA96-492C-B709-B39596C20987";
paths = (
{
closed = 1;
nodes = (
"29 227 OFFCURVE",
"31 384 OFFCURVE",
"31 408 CURVE",
"489 408 LINE",
"489 408 OFFCURVE",
"490 566 OFFCURVE",
"490 624 CURVE SMOOTH",
"490 661 OFFCURVE",
"453 687 OFFCURVE",
"416 695 CURVE SMOOTH",
"357 706 OFFCURVE",
"240 704 OFFCURVE",
"186 685 CURVE SMOOTH",
"147 670 OFFCURVE",
"126 609 OFFCURVE",
"126 609 CURVE SMOOTH",
"30 608 LINE SMOOTH",
"30 608 OFFCURVE",
"66 737 OFFCURVE",
"120 763 CURVE SMOOTH",
"193 798 OFFCURVE",
"424 806 OFFCURVE",
"498 777 CURVE SMOOTH",
"532 763 OFFCURVE",
"602 746 OFFCURVE",
"602 690 CURVE SMOOTH",
"602 565 OFFCURVE",
"602 271 OFFCURVE",
"602 162 CURVE SMOOTH",
"602 115 OFFCURVE",
"517 11 OFFCURVE",
"469 9 CURVE SMOOTH",
"400 5 OFFCURVE",
"214 5 OFFCURVE",
"150 13 CURVE SMOOTH",
"87 21 OFFCURVE",
"31 102 OFFCURVE",
"30 167 CURVE SMOOTH"
);
},
{
closed = 1;
nodes = (
"134 139 OFFCURVE",
"172 115 OFFCURVE",
"211 115 CURVE SMOOTH",
"273 113 OFFCURVE",
"363 112 OFFCURVE",
"418 113 CURVE SMOOTH",
"450 114 OFFCURVE",
"489 138 OFFCURVE",
"489 174 CURVE SMOOTH",
"489 208 OFFCURVE",
"489 291 OFFCURVE",
"489 291 CURVE SMOOTH",
"133 291 LINE SMOOTH",
"133 291 OFFCURVE",
"132 211 OFFCURVE",
"133 176 CURVE SMOOTH"
);
}
);
width = 632;
}
);
unicode = 0043;
},
{
glyphname = D;
lastChange = "2019-09-19 12:15:28 +0000";
layers = (
{
layerId = "FC429158-EA96-492C-B709-B39596C20987";
paths = (
{
closed = 1;
nodes = (
"128 700 LINE",
"129 674 LINE",
"154 676 LINE",
"153 373 LINE",
"30 298 LINE",
"31 261 LINE",
"55 260 LINE",
"56 17 LINE",
"84 19 LINE",
"118 55 LINE",
"403 56 LINE",
"438 115 LINE",
"193 115 LINE",
"196 332 LINE",
"281 391 LINE",
"285 659 LINE",
"487 662 LINE",
"483 8 LINE",
"541 9 LINE",
"632 77 LINE",
"631 795 LINE",
"573 794 LINE",
"514 741 LINE",
"280 740 LINE",
"281 793 LINE",
"255 791 LINE"
);
}
);
width = 662;
}
);
unicode = 0044;
},
{
glyphname = E;
lastChange = "2019-09-19 12:15:38 +0000";
layers = (
{
layerId = "FC429158-EA96-492C-B709-B39596C20987";
paths = (
{
closed = 1;
nodes = (
"153 798 LINE",
"30 705 LINE",
"30 675 LINE",
"58 674 LINE",
"56 115 LINE",
"102 116 LINE",
"289 309 LINE",
"286 2 LINE",
"326 2 LINE",
"395 31 LINE",
"547 31 LINE",
"646 91 LINE",
"647 771 LINE",
"567 771 LINE",
"481 691 LINE",
"479 673 LINE",
"511 671 LINE",
"511 89 LINE",
"420 89 LINE",
"425 511 LINE",
"379 511 LINE",
"175 284 LINE",
"175 798 LINE"
);
}
);
width = 677;
}
);
unicode = 0045;
},
{
glyphname = F;
lastChange = "2019-09-19 12:16:01 +0000";
layers = (
{
layerId = "FC429158-EA96-492C-B709-B39596C20987";
paths = (
{
closed = 1;
nodes = (
"594 697 LINE",
"617 734 LINE",
"629 796 LINE",
"629 796 OFFCURVE",
"540 800 OFFCURVE",
"517 793 CURVE",
"502 789 OFFCURVE",
"484 745 OFFCURVE",
"484 752 CURVE",
"205 752 LINE",
"197 797 LINE",
"197 797 OFFCURVE",
"120 799 OFFCURVE",
"94 791 CURVE",
"69 785 OFFCURVE",
"30 754 OFFCURVE",
"30 754 CURVE",
"30 668 LINE",
"218 432 LINE",
"91 336 LINE",
"91 1 LINE",
"520 1 LINE",
"658 317 LINE",
"482 109 LINE",
"221 109 LINE",
"221 336 LINE",
"252 432 LINE",
"221 654 LINE",
"484 655 LINE",
"484 467 LINE",
"592 467 LINE"
);
}
);
width = 688;
}
);
unicode = 0046;
},
{
glyphname = G;
lastChange = "2019-09-19 12:17:25 +0000";
layers = (
{
layerId = "FC429158-EA96-492C-B709-B39596C20987";
paths = (
{
closed = 1;
nodes = (
"393 794 OFFCURVE",
"255 734 OFFCURVE",
"221 710 CURVE",
"157 666 OFFCURVE",
"80 563 OFFCURVE",
"51 472 CURVE",
"26 395 OFFCURVE",
"23 316 OFFCURVE",
"43 237 CURVE",
"63 159 OFFCURVE",
"180 53 OFFCURVE",
"243 25 CURVE",
"292 3 OFFCURVE",
"363 10 OFFCURVE",
"400 22 CURVE",
"431 33 OFFCURVE",
"477 42 OFFCURVE",
"478 71 CURVE",
"479 147 OFFCURVE",
"478 514 OFFCURVE",
"477 514 CURVE",
"518 580 LINE",
"551 539 LINE",
"551 9 LINE",
"637 9 LINE",
"637 621 LINE",
"518 621 LINE",
"456 550 LINE",
"383 518 LINE",
"380 174 LINE",
"380 174 OFFCURVE",
"229 192 OFFCURVE",
"195 250 CURVE",
"159 310 OFFCURVE",
"139 461 OFFCURVE",
"166 538 CURVE",
"194 613 OFFCURVE",
"216 639 OFFCURVE",
"284 697 CURVE",
"333 739 OFFCURVE",
"406 767 OFFCURVE",
"398 781 CURVE"
);
}
);
width = 667;
}
);
unicode = 0047;
},
{
glyphname = H;
lastChange = "2019-09-22 03:27:48 +0000";
layers = (
{
layerId = "FC429158-EA96-492C-B709-B39596C20987";
paths = (
{
closed = 1;
nodes = (
"30 724 LINE",
"30 705 LINE",
"80 695 LINE",
"77 -31 LINE",
"188 25 LINE",
"196 695 LINE",
"541 696 LINE",
"541 696 OFFCURVE",
"542 493 OFFCURVE",
"533 417 CURVE",
"529 386 OFFCURVE",
"514 330 OFFCURVE",
"491 293 CURVE",
"464 249 OFFCURVE",
"426 232 OFFCURVE",
"426 232 CURVE",
"426 578 LINE",
"267 475 LINE",
"267 448 LINE",
"295 448 LINE",
"295 60 LINE",
"295 60 OFFCURVE",
"506 164 OFFCURVE",
"555 240 CURVE",
"588 290 OFFCURVE",
"655 408 OFFCURVE",
"658 459 CURVE",
"661 540 OFFCURVE",
"666 786 OFFCURVE",
"666 786 CURVE",
"611 750 LINE",
"208 750 LINE",
"159 812 LINE"
);
}
);
width = 696;
}
);
unicode = 0048;
},
{
glyphname = I;
lastChange = "2019-09-19 12:17:52 +0000";
layers = (
{
layerId = "FC429158-EA96-492C-B709-B39596C20987";
paths = (
{
closed = 1;
nodes = (
"385 793 LINE",
"260 707 LINE",
"258 683 LINE",
"290 683 LINE",
"287 115 LINE",
"177 115 LINE",
"184 478 LINE",
"155 478 LINE",
"30 387 LINE",
"30 364 LINE",
"59 363 LINE",
"59 11 LINE",
"100 11 LINE",
"165 60 LINE",
"486 60 LINE",
"618 333 LINE",
"414 115 LINE",
"414 793 LINE"
);
}
);
width = 648;
}
);
unicode = 0049;
},
{
glyphname = J;
lastChange = "2019-09-19 12:19:33 +0000";
layers = (
{
layerId = "FC429158-EA96-492C-B709-B39596C20987";
paths = (
{
closed = 1;
nodes = (
"30 558 OFFCURVE",
"30 264 OFFCURVE",
"30 264 CURVE",
"30 264 OFFCURVE",
"127 353 OFFCURVE",
"148 414 CURVE",
"166 470 OFFCURVE",
"159 596 OFFCURVE",
"159 632 CURVE",
"159 688 OFFCURVE",
"33 694 OFFCURVE",
"30 630 CURVE"
);
},
{
closed = 1;
nodes = (
"244 715 OFFCURVE",
"255 420 OFFCURVE",
"228 315 CURVE",
"205 227 OFFCURVE",
"82 149 OFFCURVE",
"82 88 CURVE",
"81 63 OFFCURVE",
"82 10 OFFCURVE",
"82 10 CURVE",
"560 9 LINE",
"657 89 LINE",
"657 755 LINE",
"580 755 LINE",
"495 671 LINE",
"495 89 LINE",
"215 89 LINE",
"215 89 OFFCURVE",
"331 225 OFFCURVE",
"348 309 CURVE",
"372 426 OFFCURVE",
"360 793 OFFCURVE",
"360 793 CURVE",
"244 715 LINE"
);
}
);
width = 687;
}
);
unicode = 004A;
},
{
glyphname = K;
lastChange = "2019-09-19 12:20:14 +0000";
layers = (
{
layerId = "FC429158-EA96-492C-B709-B39596C20987";
paths = (
{
closed = 1;
nodes = (
"536 796 LINE",
"479 710 LINE",
"226 710 LINE",
"193 755 LINE",
"193 755 OFFCURVE",
"44 656 OFFCURVE",
"48 661 CURVE",
"53 665 OFFCURVE",
"445 663 OFFCURVE",
"444 665 CURVE",
"445 596 LINE",
"86 493 LINE",
"86 116 LINE",
"30 38 LINE",
"219 121 LINE",
"219 464 LINE",
"445 538 LINE",
"447 8 LINE",
"665 156 LINE",
"584 142 LINE",
"584 796 LINE"
);
}
);
width = 695;
}
);
unicode = 004B;
},
{
glyphname = L;
lastChange = "2019-09-20 00:10:34 +0000";
layers = (
{
layerId = "FC429158-EA96-492C-B709-B39596C20987";
paths = (
{
closed = 1;
nodes = (
"30 678 LINE",
"30 659 LINE",
"63 659 LINE",
"48 -40 LINE",
"247 107 LINE",
"171 83 LINE",
"181 761 LINE"
);
},
{
closed = 1;
nodes = (
"232 678 LINE",
"232 659 LINE",
"266 659 LINE",
"254 -40 LINE",
"454 107 LINE",
"371 83 LINE",
"390 761 LINE"
);
}
);
width = 484;
}
);
unicode = 004C;
},
{
glyphname = M;
lastChange = "2019-09-19 12:22:11 +0000";
layers = (
{
layerId = "FC429158-EA96-492C-B709-B39596C20987";
paths = (
{
closed = 1;
nodes = (
"65 667 LINE",
"65 14 LINE",
"118 40 LINE",
"497 40 LINE",
"497 40 OFFCURVE",
"498 14 OFFCURVE",
"498 13 CURVE",
"497 12 OFFCURVE",
"531 14 OFFCURVE",
"531 13 CURVE",
"621 77 LINE",
"621 699 LINE",
"276 483 LINE",
"276 463 LINE",
"290 463 LINE",
"292 112 LINE",
"204 112 LINE",
"205 791 LINE",
"181 792 LINE",
"31 682 LINE",
"30 666 LINE"
);
},
{
closed = 1;
nodes = (
"410 524 LINE",
"502 577 LINE",
"502 112 LINE",
"407 112 LINE"
);
}
);
width = 651;
}
);
unicode = 004D;
},
{
glyphname = N;
lastChange = "2019-09-19 12:22:23 +0000";
layers = (
{
layerId = "FC429158-EA96-492C-B709-B39596C20987";
paths = (
{
closed = 1;
nodes = (
"151 794 LINE",
"30 692 LINE",
"30 677 LINE",
"53 680 LINE",
"53 7 LINE",
"79 7 LINE",
"515 602 LINE",
"515 63 LINE",
"338 63 LINE",
"338 89 LINE",
"269 90 LINE",
"176 6 LINE",
"520 7 LINE",
"650 77 LINE",
"650 795 LINE",
"608 794 LINE",
"170 230 LINE",
"174 794 LINE"
);
}
);
width = 680;
}
);
unicode = 004E;
},
{
glyphname = O;
lastChange = "2019-09-19 12:22:51 +0000";
layers = (
{
layerId = "FC429158-EA96-492C-B709-B39596C20987";
paths = (
{
closed = 1;
nodes = (
"72 140 OFFCURVE",
"189 36 OFFCURVE",
"281 17 CURVE SMOOTH",
"378 -3 OFFCURVE",
"478 2 OFFCURVE",
"560 17 CURVE SMOOTH",
"644 32 OFFCURVE",
"742 94 OFFCURVE",
"766 184 CURVE SMOOTH",
"791 277 OFFCURVE",
"790 461 OFFCURVE",
"766 561 CURVE SMOOTH",
"742 659 OFFCURVE",
"643 743 OFFCURVE",
"557 768 CURVE SMOOTH",
"472 793 OFFCURVE",
"374 795 OFFCURVE",
"284 768 CURVE SMOOTH",
"197 742 OFFCURVE",
"70 649 OFFCURVE",
"47 562 CURVE SMOOTH",
"24 475 OFFCURVE",
"24 314 OFFCURVE",
"47 231 CURVE SMOOTH"
);
},
{
closed = 1;
nodes = (
"210 442 OFFCURVE",
"206 541 OFFCURVE",
"210 601 CURVE SMOOTH",
"214 656 OFFCURVE",
"273 713 OFFCURVE",
"324 731 CURVE SMOOTH",
"376 749 OFFCURVE",
"457 748 OFFCURVE",
"506 731 CURVE SMOOTH",
"554 714 OFFCURVE",
"605 659 OFFCURVE",
"606 608 CURVE SMOOTH",
"607 559 OFFCURVE",
"606 442 OFFCURVE",
"605 442 CURVE SMOOTH",
"206 442 LINE SMOOTH"
);
},
{
closed = 1;
nodes = (
"606 344 LINE",
"606 344 OFFCURVE",
"609 242 OFFCURVE",
"606 193 CURVE SMOOTH",
"603 141 OFFCURVE",
"551 89 OFFCURVE",
"504 67 CURVE SMOOTH",
"456 45 OFFCURVE",
"375 44 OFFCURVE",
"325 67 CURVE SMOOTH",
"277 89 OFFCURVE",
"211 147 OFFCURVE",
"210 197 CURVE SMOOTH",
"209 258 OFFCURVE",
"210 344 OFFCURVE",
"210 344 CURVE"
);
}
);
width = 814;
}
);
unicode = 004F;
},
{
glyphname = P;
lastChange = "2019-09-19 12:23:02 +0000";
layers = (
{
layerId = "FC429158-EA96-492C-B709-B39596C20987";
paths = (
{
closed = 1;
nodes = (
"30 7 LINE",
"655 7 LINE",
"655 93 LINE",
"176 93 LINE",
"176 226 LINE",
"176 226 OFFCURVE",
"435 225 OFFCURVE",
"527 226 CURVE",
"581 227 OFFCURVE",
"650 288 OFFCURVE",
"663 343 CURVE",
"677 401 OFFCURVE",
"696 435 OFFCURVE",
"680 496 CURVE",
"663 563 OFFCURVE",
"569 693 OFFCURVE",
"523 715 CURVE",
"512 720 OFFCURVE",
"513 781 OFFCURVE",
"513 781 CURVE",
"347 675 LINE",
"347 675 OFFCURVE",
"504 532 OFFCURVE",
"521 479 CURVE",
"534 436 OFFCURVE",
"557 387 OFFCURVE",
"543 357 CURVE",
"534 338 OFFCURVE",
"525 311 OFFCURVE",
"504 310 CURVE",
"455 304 OFFCURVE",
"298 314 OFFCURVE",
"243 324 CURVE",
"216 330 OFFCURVE",
"176 334 OFFCURVE",
"176 370 CURVE",
"175 447 OFFCURVE",
"176 789 OFFCURVE",
"173 790 CURVE",
"30 789 LINE"
);
}
);
width = 716;
}
);
unicode = 0050;
},
{
glyphname = Q;
lastChange = "2019-09-19 12:23:18 +0000";
layers = (
{
layerId = "FC429158-EA96-492C-B709-B39596C20987";
paths = (
{
closed = 1;
nodes = (
"34 682 OFFCURVE",
"34 626 OFFCURVE",
"47 601 CURVE SMOOTH",
"66 566 OFFCURVE",
"151 473 OFFCURVE",
"151 473 CURVE SMOOTH",
"151 473 OFFCURVE",
"58 419 OFFCURVE",
"42 373 CURVE SMOOTH",
"26 328 OFFCURVE",
"22 246 OFFCURVE",
"55 195 CURVE SMOOTH",
"98 131 OFFCURVE",
"271 88 OFFCURVE",
"347 86 CURVE SMOOTH",
"401 86 OFFCURVE",
"501 93 OFFCURVE",
"502 93 CURVE",
"501 11 LINE",
"657 11 LINE",
"657 787 LINE",
"34 682 LINE"
);
},
{
closed = 1;
nodes = (
"161 400 OFFCURVE",
"260 484 OFFCURVE",
"260 484 CURVE",
"168 648 LINE",
"501 711 LINE",
"501 174 LINE",
"501 174 OFFCURVE",
"330 164 OFFCURVE",
"272 177 CURVE SMOOTH",
"226 189 OFFCURVE",
"181 213 OFFCURVE",
"161 246 CURVE SMOOTH",
"141 279 OFFCURVE",
"137 325 OFFCURVE",
"149 362 CURVE SMOOTH"
);
}
);
width = 687;
}
);
unicode = 0051;
},
{
glyphname = R;
lastChange = "2019-09-19 12:23:57 +0000";
layers = (
{
layerId = "FC429158-EA96-492C-B709-B39596C20987";
paths = (
{
closed = 1;
nodes = (
"654 794 OFFCURVE",
"445 787 OFFCURVE",
"366 727 CURVE",
"270 653 OFFCURVE",
"127 438 OFFCURVE",
"75 349 CURVE",
"48 304 OFFCURVE",
"54 194 OFFCURVE",
"54 194 CURVE",
"204 231 LINE",
"204 231 OFFCURVE",
"336 570 OFFCURVE",
"391 627 CURVE",
"416 651 OFFCURVE",
"482 662 OFFCURVE",
"482 662 CURVE",
"422 262 LINE",
"528 285 LINE",
"528 285 OFFCURVE",
"516 83 OFFCURVE",
"482 65 CURVE",
"455 50 OFFCURVE",
"159 63 OFFCURVE",
"159 63 CURVE",
"149 117 LINE",
"30 3 LINE",
"525 3 LINE",
"525 3 OFFCURVE",
"609 27 OFFCURVE",
"627 70 CURVE",
"649 121 OFFCURVE",
"654 309 OFFCURVE",
"654 309 CURVE",
"700 323 LINE",
"700 403 LINE",
"585 378 LINE",
"593 681 LINE",
"654 693 LINE",
"654 794 LINE"
);
}
);
width = 730;
}
);
unicode = 0052;
},
{
glyphname = S;
lastChange = "2019-09-19 12:24:05 +0000";
layers = (
{
layerId = "FC429158-EA96-492C-B709-B39596C20987";
paths = (
{
closed = 1;
nodes = (
"30 708 LINE",
"30 686 LINE",
"58 685 LINE",
"58 49 LINE",
"48 1 LINE",
"178 71 LINE",
"178 675 LINE",
"469 675 LINE",
"469 356 LINE",
"601 440 LINE",
"601 680 LINE",
"609 754 LINE",
"538 714 LINE",
"178 714 LINE",
"178 797 LINE"
);
},
{
closed = 1;
nodes = (
"252 507 LINE",
"252 20 LINE",
"291 36 LINE",
"291 36 OFFCURVE",
"547 36 OFFCURVE",
"547 36 CURVE",
"546 36 OFFCURVE",
"639 97 OFFCURVE",
"639 94 CURVE",
"639 95 OFFCURVE",
"388 97 OFFCURVE",
"388 97 CURVE",
"388 97 OFFCURVE",
"388 595 OFFCURVE",
"394 595 CURVE"
);
}
);
width = 669;
}
);
unicode = 0053;
},
{
glyphname = T;
lastChange = "2019-09-19 12:24:14 +0000";
layers = (
{
layerId = "FC429158-EA96-492C-B709-B39596C20987";
paths = (
{
closed = 1;
nodes = (
"464 4 LINE",
"613 95 LINE",
"613 95 OFFCURVE",
"620 800 OFFCURVE",
"620 804 CURVE SMOOTH",
"620 805 OFFCURVE",
"504 725 OFFCURVE",
"504 725 CURVE SMOOTH",
"193 725 LINE",
"193 800 LINE",
"32 700 LINE",
"32 670 LINE",
"74 669 LINE",
"74 247 LINE",
"193 248 LINE",
"466 449 LINE",
"466 65 LINE",
"184 65 LINE SMOOTH",
"184 65 OFFCURVE",
"153 92 OFFCURVE",
"156 95 CURVE",
"30 4 LINE"
);
},
{
closed = 1;
nodes = (
"193 671 LINE",
"193 671 OFFCURVE",
"197 672 OFFCURVE",
"197 672 CURVE",
"197 671 LINE",
"205 669 OFFCURVE",
"466 672 OFFCURVE",
"465 672 CURVE",
"466 523 LINE",
"193 337 LINE"
);
}
);
width = 650;
}
);
unicode = 0054;
},
{
glyphname = U;
lastChange = "2019-09-19 12:24:31 +0000";
layers = (
{
layerId = "FC429158-EA96-492C-B709-B39596C20987";
paths = (
{
closed = 1;
nodes = (
"679 685 OFFCURVE",
"619 733 OFFCURVE",
"581 759 CURVE",
"517 801 OFFCURVE",
"219 814 OFFCURVE",
"137 753 CURVE",
"86 717 OFFCURVE",
"30 648 OFFCURVE",
"30 586 CURVE",
"31 458 OFFCURVE",
"30 35 OFFCURVE",
"34 35 CURVE",
"34 35 OFFCURVE",
"185 97 OFFCURVE",
"185 96 CURVE",
"183 95 OFFCURVE",
"183 493 OFFCURVE",
"185 590 CURVE",
"186 625 OFFCURVE",
"214 675 OFFCURVE",
"250 691 CURVE",
"299 716 OFFCURVE",
"438 715 OFFCURVE",
"483 691 CURVE",
"519 672 OFFCURVE",
"541 618 OFFCURVE",
"541 592 CURVE",
"542 488 OFFCURVE",
"543 72 OFFCURVE",
"543 72 CURVE",
"422 72 LINE",
"421 469 LINE",
"343 469 LINE",
"265 427 LINE",
"265 1 LINE",
"681 1 LINE",
"681 1 OFFCURVE",
"685 463 OFFCURVE",
"681 593 CURVE"
);
}
);
width = 713;
}
);
unicode = 0055;
},
{
glyphname = V;
lastChange = "2019-09-19 12:24:44 +0000";
layers = (
{
layerId = "FC429158-EA96-492C-B709-B39596C20987";
paths = (
{
closed = 1;
nodes = (
"30 675 LINE",
"30 1 LINE",
"588 1 LINE",
"588 81 LINE",
"170 81 LINE",
"609 663 LINE",
"609 796 LINE",
"495 796 LINE",
"495 731 LINE",
"168 300 LINE",
"170 796 LINE",
"111 796 LINE"
);
}
);
width = 639;
}
);
unicode = 0056;
},
{
glyphname = W;
lastChange = "2019-09-19 12:25:06 +0000";
layers = (
{
layerId = "FC429158-EA96-492C-B709-B39596C20987";
paths = (
{
closed = 1;
nodes = (
"31 700 LINE",
"30 677 LINE",
"64 677 LINE",
"64 1 LINE",
"104 1 LINE",
"287 252 LINE",
"287 136 LINE",
"328 136 LINE",
"443 241 LINE",
"443 444 LINE",
"536 559 LINE",
"536 68 LINE",
"413 68 LINE",
"363 99 LINE",
"222 1 LINE",
"560 1 LINE",
"674 96 LINE",
"674 734 LINE",
"621 786 LINE",
"443 565 LINE",
"443 626 LINE",
"266 523 LINE",
"266 492 LINE",
"287 492 LINE",
"287 372 LINE",
"203 262 LINE",
"203 794 LINE",
"165 794 LINE"
);
}
);
width = 704;
}
);
unicode = 0057;
},
{
glyphname = X;
lastChange = "2019-09-19 12:25:32 +0000";
layers = (
{
layerId = "FC429158-EA96-492C-B709-B39596C20987";
paths = (
{
closed = 1;
nodes = (
"117 791 LINE",
"31 694 LINE",
"30 637 LINE",
"101 637 LINE",
"101 1 LINE",
"192 1 LINE",
"596 718 LINE",
"596 791 LINE",
"525 791 LINE",
"197 243 LINE",
"210 791 LINE"
);
},
{
closed = 1;
nodes = (
"229 1 LINE",
"735 1 LINE",
"735 80 LINE",
"364 80 LINE",
"622 553 LINE",
"550 553 LINE"
);
}
);
width = 765;
}
);
unicode = 0058;
},
{
glyphname = Y;
lastChange = "2019-09-19 12:26:02 +0000";
layers = (
{
layerId = "FC429158-EA96-492C-B709-B39596C20987";
paths = (
{
closed = 1;
nodes = (
"518 789 LINE",
"518 789 OFFCURVE",
"501 750 OFFCURVE",
"497 726 CURVE",
"490 692 OFFCURVE",
"491 621 OFFCURVE",
"495 590 CURVE",
"497 572 OFFCURVE",
"517 541 OFFCURVE",
"517 541 CURVE",
"511 121 LINE",
"239 121 LINE",
"387 277 LINE",
"387 277 OFFCURVE",
"235 384 OFFCURVE",
"232 440 CURVE",
"229 483 OFFCURVE",
"231 524 OFFCURVE",
"232 569 CURVE",
"232 640 OFFCURVE",
"469 789 OFFCURVE",
"469 789 CURVE",
"469 789 OFFCURVE",
"334 788 OFFCURVE",
"282 767 CURVE",
"192 730 OFFCURVE",
"70 630 OFFCURVE",
"71 563 CURVE",
"72 518 OFFCURVE",
"72 479 OFFCURVE",
"74 437 CURVE",
"78 389 OFFCURVE",
"200 277 OFFCURVE",
"200 277 CURVE",
"30 1 LINE",
"588 1 LINE",
"624 42 LINE",
"624 791 LINE"
);
}
);
width = 654;
}
);
unicode = 0059;
},
{
glyphname = Z;
lastChange = "2019-09-19 12:26:12 +0000";
layers = (
{
layerId = "FC429158-EA96-492C-B709-B39596C20987";
paths = (
{
closed = 1;
nodes = (
"211 797 LINE",
"30 598 LINE",
"121 598 LINE",
"123 100 LINE",
"69 1 LINE",
"69 1 OFFCURVE",
"483 0 OFFCURVE",
"584 1 CURVE",
"659 2 OFFCURVE",
"709 52 OFFCURVE",
"712 124 CURVE",
"713 189 OFFCURVE",
"558 398 OFFCURVE",
"558 398 CURVE",
"558 398 OFFCURVE",
"686 600 OFFCURVE",
"689 651 CURVE",
"695 757 OFFCURVE",
"461 797 OFFCURVE",
"461 797 CURVE",
"420 643 LINE",
"420 643 OFFCURVE",
"550 594 OFFCURVE",
"548 548 CURVE",
"546 502 OFFCURVE",
"408 365 OFFCURVE",
"408 365 CURVE",
"408 365 OFFCURVE",
"549 197 OFFCURVE",
"554 145 CURVE",
"556 111 OFFCURVE",
"522 106 OFFCURVE",
"522 107 CURVE",
"267 106 LINE",
"267 797 LINE"
);
}
);
width = 742;
}
);
unicode = 005A;
},
{
glyphname = a;
lastChange = "2019-09-19 12:26:30 +0000";
layers = (
{
layerId = "FC429158-EA96-492C-B709-B39596C20987";
paths = (
{
closed = 1;
nodes = (
"486 87 LINE",
"381 1 LINE",
"30 1 LINE",
"30 1 OFFCURVE",
"100 275 OFFCURVE",
"144 356 CURVE",
"177 417 OFFCURVE",
"299 496 OFFCURVE",
"299 496 CURVE",
"299 165 LINE",
"203 116 LINE",
"203 306 LINE",
"123 66 LINE",
"378 66 LINE",
"378 66 OFFCURVE",
"378 391 OFFCURVE",
"378 391 CURVE",
"378 392 OFFCURVE",
"341 420 OFFCURVE",
"341 420 CURVE",
"486 510 LINE"
);
}
);
width = 516;
}
);
unicode = 0061;
},
{
glyphname = b;
lastChange = "2019-09-19 12:26:41 +0000";
layers = (
{
layerId = "FC429158-EA96-492C-B709-B39596C20987";
paths = (
{
closed = 1;
nodes = (
"95 409 LINE",
"95 285 LINE",
"257 285 LINE",
"257 677 LINE",
"327 677 LINE",
"327 1 LINE",
"30 1 LINE",
"30 408 LINE"
);
},
{
closed = 1;
nodes = (
"96 80 LINE",
"257 80 LINE",
"257 193 LINE",
"95 193 LINE"
);
}
);
width = 357;
}
);
unicode = 0062;
},
{
glyphname = c;
lastChange = "2019-09-19 12:27:14 +0000";
layers = (
{
layerId = "FC429158-EA96-492C-B709-B39596C20987";
paths = (
{
closed = 1;
nodes = (
"373 239 LINE",
"373 239 OFFCURVE",
"362 431 OFFCURVE",
"233 441 CURVE SMOOTH",
"169 446 OFFCURVE",
"129 342 OFFCURVE",
"129 342 CURVE SMOOTH",
"49 343 LINE SMOOTH",
"49 343 OFFCURVE",
"81 503 OFFCURVE",
"255 499 CURVE SMOOTH",
"412 495 OFFCURVE",
"490 360 OFFCURVE",
"493 254 CURVE SMOOTH",
"496 160 OFFCURVE",
"403 1 OFFCURVE",
"271 3 CURVE SMOOTH",
"23 7 OFFCURVE",
"30 261 OFFCURVE",
"30 261 CURVE"
);
},
{
closed = 1;
nodes = (
"125 222 OFFCURVE",
"155 63 OFFCURVE",
"273 53 CURVE SMOOTH",
"396 43 OFFCURVE",
"375 206 OFFCURVE",
"375 206 CURVE",
"125 222 LINE"
);
}
);
width = 523;
}
);
unicode = 0063;
},
{
glyphname = d;
lastChange = "2019-09-19 12:27:24 +0000";
layers = (
{
layerId = "FC429158-EA96-492C-B709-B39596C20987";
paths = (
{
closed = 1;
nodes = (
"499 39 LINE",
"380 -34 LINE",
"380 393 LINE",
"249 392 LINE",
"249 289 LINE",
"154 227 LINE",
"154 64 LINE",
"364 65 LINE",
"346 10 LINE",
"69 10 LINE",
"39 1 LINE",
"46 41 LINE",
"46 176 LINE",
"30 176 LINE",
"119 239 LINE",
"119 406 LINE",
"105 420 LINE",
"249 499 LINE",
"249 453 LINE",
"432 453 LINE",
"499 494 LINE"
);
}
);
width = 529;
}
);
unicode = 0064;
},
{
glyphname = e;
lastChange = "2019-09-20 01:00:39 +0000";
layers = (
{
layerId = "FC429158-EA96-492C-B709-B39596C20987";
paths = (
{
closed = 1;
nodes = (
"519 63 LINE",
"398 -15 LINE",
"398 7 LINE",
"295 9 LINE",
"225 -36 LINE",
"225 155 LINE",
"158 67 LINE",
"158 43 LINE",
"59 -16 LINE",
"61 416 LINE",
"30 416 LINE",
"158 507 LINE",
"158 130 LINE",
"225 221 LINE",
"225 302 LINE",
"332 365 LINE",
"323 53 LINE",
"398 53 LINE",
"398 416 LINE",
"368 416 LINE",
"519 518 LINE"
);
}
);
width = 549;
}
);
unicode = 0065;
},
{
glyphname = f;
lastChange = "2019-09-19 12:28:16 +0000";
layers = (
{
layerId = "FC429158-EA96-492C-B709-B39596C20987";
paths = (
{
closed = 1;
nodes = (
"457 289 LINE",
"374 289 LINE",
"374 428 LINE",
"145 428 LINE",
"145 357 LINE",
"170 285 LINE",
"112 179 LINE",
"112 90 LINE",
"365 90 LINE",
"457 163 LINE",
"385 1 LINE",
"30 1 LINE",
"30 211 LINE",
"121 285 LINE",
"30 502 LINE",
"457 502 LINE"
);
}
);
width = 487;
}
);
unicode = 0066;
},
{
glyphname = g;
lastChange = "2019-09-19 12:28:38 +0000";
layers = (
{
layerId = "FC429158-EA96-492C-B709-B39596C20987";
paths = (
{
closed = 1;
nodes = (
"486 34 LINE",
"369 -35 LINE",
"369 353 LINE",
"322 327 LINE",
"322 62 LINE",
"213 8 LINE",
"213 8 OFFCURVE",
"59 15 OFFCURVE",
"32 245 CURVE",
"8 446 OFFCURVE",
"253 501 OFFCURVE",
"316 498 CURVE",
"342 497 OFFCURVE",
"341 498 OFFCURVE",
"342 490 CURVE",
"342 484 OFFCURVE",
"328 480 OFFCURVE",
"306 478 CURVE",
"278 474 OFFCURVE",
"113 416 OFFCURVE",
"123 265 CURVE",
"131 153 OFFCURVE",
"216 138 OFFCURVE",
"213 138 CURVE",
"216 280 LINE",
"195 291 LINE",
"453 465 LINE",
"486 465 LINE"
);
}
);
width = 516;
}
);
unicode = 0067;
},
{
glyphname = h;
lastChange = "2019-09-19 12:29:17 +0000";
layers = (
{
layerId = "FC429158-EA96-492C-B709-B39596C20987";
paths = (
{
closed = 1;
nodes = (
"151 532 LINE",
"151 470 LINE",
"479 470 LINE",
"513 486 LINE",
"513 486 OFFCURVE",
"525 332 OFFCURVE",
"383 163 CURVE SMOOTH",
"331 101 OFFCURVE",
"218 64 OFFCURVE",
"218 57 CURVE",
"218 362 LINE",
"195 362 LINE",
"286 424 LINE",
"151 424 LINE",
"151 39 LINE",
"56 1 LINE",
"56 424 LINE",
"30 435 LINE"
);
},
{
closed = 1;
nodes = (
"316 182 OFFCURVE",
"377 223 OFFCURVE",
"383 286 CURVE SMOOTH",
"387 331 OFFCURVE",
"386 424 OFFCURVE",
"386 424 CURVE SMOOTH",
"316 424 LINE",
"311 182 LINE"
);
}
);
width = 543;
}
);
unicode = 0068;
},
{
glyphname = i;
lastChange = "2019-09-19 12:29:25 +0000";
layers = (
{
layerId = "FC429158-EA96-492C-B709-B39596C20987";
paths = (
{
closed = 1;
nodes = (
"227 77 LINE",
"30 -27 LINE",
"118 68 LINE",
"118 559 LINE",
"77 559 LINE",
"196 646 LINE",
"227 646 LINE"
);
}
);
width = 257;
}
);
unicode = 0069;
},
{
glyphname = j;
lastChange = "2019-09-19 12:29:33 +0000";
layers = (
{
layerId = "FC429158-EA96-492C-B709-B39596C20987";
paths = (
{
closed = 1;
nodes = (
"501 1 LINE",
"31 1 LINE",
"31 1 OFFCURVE",
"212 164 OFFCURVE",
"212 208 CURVE",
"212 271 OFFCURVE",
"212 458 OFFCURVE",
"214 458 CURVE",
"196 458 LINE",
"299 544 LINE",
"299 544 OFFCURVE",
"299 279 OFFCURVE",
"299 208 CURVE",
"300 178 OFFCURVE",
"168 71 OFFCURVE",
"168 71 CURVE",
"397 71 LINE",
"397 342 LINE",
"366 341 LINE",
"501 443 LINE"
);
},
{
closed = 1;
nodes = (
"144 395 OFFCURVE",
"146 285 OFFCURVE",
"125 257 CURVE",
"106 231 OFFCURVE",
"31 166 OFFCURVE",
"30 166 CURVE",
"30 166 OFFCURVE",
"29 272 OFFCURVE",
"31 315 CURVE",
"32 345 OFFCURVE",
"144 395 OFFCURVE",
"144 395 CURVE"
);
}
);
width = 531;
}
);
unicode = 006A;
},
{
glyphname = k;
lastChange = "2019-09-19 12:29:47 +0000";
layers = (
{
layerId = "FC429158-EA96-492C-B709-B39596C20987";
paths = (
{
closed = 1;
nodes = (
"408 144 LINE",
"500 176 LINE",
"303 19 LINE",
"303 345 LINE",
"168 285 LINE",
"168 101 LINE",
"168 101 OFFCURVE",
"181 95 OFFCURVE",
"181 90 CURVE",
"182 81 OFFCURVE",
"174 72 OFFCURVE",
"174 72 CURVE",
"174 72 OFFCURVE",
"61 -7 OFFCURVE",
"37 -22 CURVE",
"34 -23 OFFCURVE",
"29 -17 OFFCURVE",
"30 -13 CURVE",
"36 -4 OFFCURVE",
"76 36 OFFCURVE",
"76 36 CURVE",
"76 285 LINE",
"303 392 LINE",
"303 414 LINE",
"34 413 LINE",
"134 493 LINE",
"169 451 LINE",
"303 451 LINE",
"408 532 LINE"
);
}
);
width = 530;
}
);
unicode = 006B;
},
{
glyphname = l;
lastChange = "2019-09-20 00:09:12 +0000";
layers = (
{
layerId = "FC429158-EA96-492C-B709-B39596C20987";
paths = (
{
closed = 1;
nodes = (
"409 107 LINE",
"516 139 LINE",
"284 -40 LINE",
"284 104 LINE",
"81 -40 LINE",
"81 481 LINE",
"30 481 LINE",
"183 603 LINE",
"204 603 LINE",
"203 107 LINE",
"284 132 LINE",
"284 481 LINE",
"249 481 LINE",
"401 603 LINE",
"423 603 LINE"
);
}
);
width = 546;
}
);
unicode = 006C;
},
{
glyphname = m;
lastChange = "2019-09-19 12:30:39 +0000";
layers = (
{
layerId = "FC429158-EA96-492C-B709-B39596C20987";
paths = (
{
closed = 1;
nodes = (
"149 465 LINE",
"185 465 LINE",
"179 48 LINE",
"252 48 LINE",
"252 310 LINE",
"214 322 LINE",
"513 558 LINE",
"536 558 LINE",
"536 37 LINE",
"425 -42 LINE",
"425 1 LINE",
"119 1 LINE",
"78 -32 LINE",
"78 351 LINE",
"30 363 LINE"
);
},
{
closed = 1;
nodes = (
"406 48 LINE",
"428 63 LINE",
"429 410 LINE",
"384 410 LINE",
"358 391 LINE",
"358 48 LINE"
);
}
);
width = 566;
}
);
unicode = 006D;
},
{
glyphname = n;
lastChange = "2019-09-19 12:30:47 +0000";
layers = (
{
layerId = "FC429158-EA96-492C-B709-B39596C20987";
paths = (
{
closed = 1;
nodes = (
"499 74 LINE",
"395 1 LINE",
"106 1 LINE",
"210 97 LINE",
"257 50 LINE",
"387 50 LINE",
"387 353 LINE",
"52 11 LINE",
"51 395 LINE",
"30 413 LINE",
"160 499 LINE",
"160 158 LINE",
"387 390 LINE",
"387 422 LINE",
"502 499 LINE"
);
}
);
width = 532;
}
);
unicode = 006E;
},
{
glyphname = o;
lastChange = "2019-09-19 12:30:55 +0000";
layers = (
{
layerId = "FC429158-EA96-492C-B709-B39596C20987";
paths = (
{
closed = 1;
nodes = (
"31 373 OFFCURVE",
"96 494 OFFCURVE",
"259 494 CURVE SMOOTH",
"442 494 OFFCURVE",
"480 373 OFFCURVE",
"479 239 CURVE SMOOTH",
"478 89 OFFCURVE",
"399 1 OFFCURVE",
"259 1 CURVE SMOOTH",
"124 1 OFFCURVE",
"29 118 OFFCURVE",
"30 239 CURVE SMOOTH"
);
},
{
closed = 1;
nodes = (
"367 280 LINE",
"367 280 OFFCURVE",
"368 337 OFFCURVE",
"368 369 CURVE SMOOTH",
"368 411 OFFCURVE",
"310 463 OFFCURVE",
"259 463 CURVE SMOOTH",
"205 463 OFFCURVE",
"145 409 OFFCURVE",
"145 369 CURVE SMOOTH",
"145 347 OFFCURVE",
"145 280 OFFCURVE",
"145 283 CURVE"
);
},
{
closed = 1;
nodes = (
"147 72 OFFCURVE",
"211 33 OFFCURVE",
"259 33 CURVE SMOOTH",
"320 33 OFFCURVE",
"369 71 OFFCURVE",
"369 106 CURVE SMOOTH",
"369 143 OFFCURVE",
"368 210 OFFCURVE",
"368 210 CURVE SMOOTH",
"148 210 LINE SMOOTH",
"148 210 OFFCURVE",
"147 145 OFFCURVE",
"147 106 CURVE SMOOTH"
);
}
);
width = 509;
}
);
unicode = 006F;
},
{
glyphname = p;
lastChange = "2019-09-19 12:31:04 +0000";
layers = (
{
layerId = "FC429158-EA96-492C-B709-B39596C20987";
paths = (
{
closed = 1;
nodes = (
"389 485 OFFCURVE",
"350 437 OFFCURVE",
"364 418 CURVE",
"373 403 OFFCURVE",
"403 365 OFFCURVE",
"438 320 CURVE",
"461 289 OFFCURVE",
"460 218 OFFCURVE",
"444 193 CURVE",
"431 167 OFFCURVE",
"382 129 OFFCURVE",
"351 128 CURVE",
"303 127 OFFCURVE",
"151 128 OFFCURVE",
"151 128 CURVE",
"151 56 LINE",
"433 55 LINE",
"433 1 LINE",
"30 1 LINE",
"30 487 LINE",
"151 555 LINE",
"151 200 LINE",
"151 200 OFFCURVE",
"329 198 OFFCURVE",
"358 200 CURVE",
"417 200 OFFCURVE",
"288 338 OFFCURVE",
"254 373 CURVE",
"222 409 OFFCURVE",
"389 485 OFFCURVE",
"389 485 CURVE"
);
}
);
width = 486;
}
);
unicode = 0070;
},
{
glyphname = q;
lastChange = "2019-09-19 12:31:12 +0000";
layers = (
{
layerId = "FC429158-EA96-492C-B709-B39596C20987";
paths = (
{
closed = 1;
nodes = (
"452 23 LINE",
"386 23 LINE",
"349 91 LINE",
"374 123 LINE",
"374 425 LINE",
"150 425 LINE",
"205 290 LINE",
"205 290 OFFCURVE",
"135 195 OFFCURVE",
"137 146 CURVE",
"138 107 OFFCURVE",
"172 75 OFFCURVE",
"196 75 CURVE",
"236 75 OFFCURVE",
"321 75 OFFCURVE",
"321 74 CURVE",
"321 0 LINE",
"321 0 OFFCURVE",
"205 0 OFFCURVE",
"153 1 CURVE",
"101 2 OFFCURVE",
"30 76 OFFCURVE",
"31 120 CURVE",
"31 183 OFFCURVE",
"99 254 OFFCURVE",
"99 254 CURVE",
"99 254 OFFCURVE",
"34 360 OFFCURVE",
"30 401 CURVE",
"28 442 OFFCURVE",
"54 497 OFFCURVE",
"91 498 CURVE",
"141 498 OFFCURVE",
"385 498 OFFCURVE",
"385 498 CURVE",
"452 511 LINE"
);
}
);
width = 482;
}
);
unicode = 0071;
},
{
glyphname = r;
lastChange = "2019-09-19 12:31:20 +0000";
layers = (
{
layerId = "FC429158-EA96-492C-B709-B39596C20987";
paths = (
{
closed = 1;
nodes = (
"137 546 LINE",
"137 333 LINE",
"155 333 LINE",
"224 382 LINE",
"224 89 LINE",
"48 1 LINE",
"46 28 LINE",
"137 75 LINE",
"137 295 LINE",
"120 296 LINE",
"43 244 LINE",
"43 489 LINE",
"30 501 LINE",
"131 578 LINE",
"156 579 LINE"
);
}
);
width = 254;
}
);
unicode = 0072;
},
{
glyphname = s;
lastChange = "2019-09-19 12:31:28 +0000";
layers = (
{
layerId = "FC429158-EA96-492C-B709-B39596C20987";
paths = (
{
closed = 1;
nodes = (
"483 475 LINE",
"483 265 LINE",
"368 183 LINE",
"368 416 LINE",
"159 427 LINE",
"159 84 LINE",
"51 12 LINE",
"51 432 LINE",
"30 451 LINE",
"147 532 LINE",
"159 532 LINE",
"159 470 LINE",
"376 456 LINE",
"473 511 LINE",
"496 511 LINE"
);
},
{
closed = 1;
nodes = (
"318 86 LINE",
"480 86 LINE",
"419 30 LINE",
"250 30 LINE",
"194 1 LINE",
"210 90 LINE",
"210 289 LINE",
"318 360 LINE"
);
}
);
width = 526;
}
);
unicode = 0073;
},
{
glyphname = t;
lastChange = "2019-09-19 12:31:57 +0000";
layers = (
{
layerId = "FC429158-EA96-492C-B709-B39596C20987";
paths = (
{
closed = 1;
nodes = (
"147 273 LINE",
"257 364 LINE",
"257 389 LINE",
"362 459 LINE",
"362 109 LINE",
"173 1 LINE",
"162 22 LINE",
"257 79 LINE",
"257 325 LINE",
"147 214 LINE",
"147 75 LINE",
"51 12 LINE",
"51 529 LINE",
"30 544 LINE",
"147 628 LINE"
);
}
);
width = 392;
}
);
unicode = 0074;
},
{
glyphname = u;
lastChange = "2019-09-19 12:32:05 +0000";
layers = (
{
layerId = "FC429158-EA96-492C-B709-B39596C20987";
paths = (
{
closed = 1;
nodes = (
"493 248 OFFCURVE",
"490 39 OFFCURVE",
"490 39 CURVE",
"382 -24 LINE",
"381 18 LINE",
"190 16 LINE",
"227 54 LINE",
"227 283 LINE",
"198 305 LINE",
"309 370 LINE",
"322 370 LINE",
"322 54 LINE",
"381 54 LINE",
"381 54 OFFCURVE",
"383 289 OFFCURVE",
"381 364 CURVE",
"381 412 OFFCURVE",
"354 454 OFFCURVE",
"269 454 CURVE",
"187 451 OFFCURVE",
"154 406 OFFCURVE",
"153 356 CURVE",
"152 295 OFFCURVE",
"152 91 OFFCURVE",
"152 91 CURVE",
"30 10 LINE",
"30 10 OFFCURVE",
"33 234 OFFCURVE",
"35 321 CURVE",
"35 430 OFFCURVE",
"152 498 OFFCURVE",
"269 501 CURVE",
"381 501 OFFCURVE",
"492 430 OFFCURVE",
"492 337 CURVE"
);
}
);
width = 522;
}
);
unicode = 0075;
},
{
glyphname = v;
lastChange = "2019-09-19 12:32:15 +0000";
layers = (
{
layerId = "FC429158-EA96-492C-B709-B39596C20987";
paths = (
{
closed = 1;
nodes = (
"440 319 OFFCURVE",
"213 67 OFFCURVE",
"213 66 CURVE",
"474 67 LINE",
"474 1 LINE",
"30 1 LINE",
"69 67 LINE",
"69 470 LINE",
"173 499 LINE",
"173 345 LINE",
"141 290 LINE",
"141 134 LINE",
"374 374 LINE",
"374 374 OFFCURVE",
"376 417 OFFCURVE",
"389 449 CURVE",
"400 475 OFFCURVE",
"446 495 OFFCURVE",
"475 491 CURVE",
"504 487 OFFCURVE",
"519 407 OFFCURVE",
"498 384 CURVE"
);
}
);
width = 538;
}
);
unicode = 0076;
},
{
glyphname = w;
lastChange = "2019-09-19 12:32:27 +0000";
layers = (
{
layerId = "FC429158-EA96-492C-B709-B39596C20987";
paths = (
{
closed = 1;
nodes = (
"497 493 OFFCURVE",
"496 161 OFFCURVE",
"497 81 CURVE",
"497 33 OFFCURVE",
"378 1 OFFCURVE",
"377 3 CURVE",
"376 4 OFFCURVE",
"161 1 OFFCURVE",
"161 1 CURVE",
"268 84 LINE",
"312 54 LINE",
"378 53 LINE",
"378 336 LINE",
"327 301 LINE",
"327 157 LINE",
"207 83 LINE",
"207 155 LINE",
"160 127 LINE",
"160 85 LINE",
"45 13 LINE",
"45 175 LINE",
"57 188 LINE",
"57 405 LINE",
"30 413 LINE",
"146 499 LINE",
"180 499 LINE",
"180 455 LINE",
"160 442 LINE",
"160 175 LINE",
"207 202 LINE",
"207 360 LINE",
"195 371 LINE",
"327 464 LINE",
"327 337 LINE",
"378 372 LINE",
"378 418 LINE",
"496 493 LINE"
);
}
);
width = 527;
}
);
unicode = 0077;
},
{
glyphname = x;
lastChange = "2019-09-19 12:32:48 +0000";
layers = (
{
layerId = "FC429158-EA96-492C-B709-B39596C20987";
paths = (
{
closed = 1;
nodes = (
"275 60 LINE",
"431 60 LINE",
"431 1 LINE",
"194 1 LINE",
"196 60 LINE",
"395 363 LINE",
"455 351 LINE"
);
},
{
closed = 1;
nodes = (
"128 1 LINE",
"30 1 LINE",
"30 398 LINE",
"94 493 LINE",
"128 494 LINE",
"128 156 LINE",
"260 361 LINE",
"260 361 OFFCURVE",
"249 411 OFFCURVE",
"249 430 CURVE",
"250 454 OFFCURVE",
"293 487 OFFCURVE",
"324 496 CURVE",
"338 500 OFFCURVE",
"354 473 OFFCURVE",
"354 460 CURVE",
"353 437 OFFCURVE",
"352 372 OFFCURVE",
"352 372 CURVE"
);
}
);
width = 485;
}
);
unicode = 0078;
},
{
glyphname = y;
lastChange = "2019-09-19 12:32:55 +0000";
layers = (
{
layerId = "FC429158-EA96-492C-B709-B39596C20987";
paths = (
{
closed = 1;
nodes = (
"434 507 OFFCURVE",
"435 122 OFFCURVE",
"434 33 CURVE",
"434 3 OFFCURVE",
"369 -30 OFFCURVE",
"369 -33 CURVE",
"305 -30 LINE",
"299 1 LINE",
"30 1 LINE",
"30 67 LINE",
"127 139 LINE",
"127 139 OFFCURVE",
"61 163 OFFCURVE",
"44 204 CURVE",
"28 243 OFFCURVE",
"27 320 OFFCURVE",
"39 366 CURVE",
"50 411 OFFCURVE",
"98 460 OFFCURVE",
"141 478 CURVE",
"182 495 OFFCURVE",
"295 498 OFFCURVE",
"295 498 CURVE",
"295 498 OFFCURVE",
"167 434 OFFCURVE",
"143 394 CURVE",
"123 358 OFFCURVE",
"132 282 OFFCURVE",
"142 252 CURVE",
"152 229 OFFCURVE",
"207 193 OFFCURVE",
"207 193 CURVE",
"207 114 LINE",
"128 40 LINE",
"317 40 LINE",
"317 450 LINE",
"434 507 LINE"
);
}
);
width = 464;
}
);
unicode = 0079;
},
{
glyphname = z;
lastChange = "2019-09-19 12:33:04 +0000";
layers = (
{
layerId = "FC429158-EA96-492C-B709-B39596C20987";
paths = (
{
closed = 1;
nodes = (
"395 499 OFFCURVE",
"460 400 OFFCURVE",
"460 400 CURVE",
"334 266 LINE",
"473 101 LINE",
"371 1 LINE",
"30 1 LINE",
"62 67 LINE",
"62 373 LINE",
"31 402 LINE",
"155 499 LINE",
"155 67 LINE",
"357 67 LINE",
"262 251 LINE",
"349 352 LINE",
"349 352 OFFCURVE",
"304 396 OFFCURVE",
"284 421 CURVE",
"266 441 OFFCURVE",
"328 499 OFFCURVE",
"361 499 CURVE"
);
}
);
width = 503;
}
);
unicode = 007A;
},
{
glyphname = zero;
lastChange = "2019-09-19 12:13:49 +0000";
layers = (
{
layerId = "FC429158-EA96-492C-B709-B39596C20987";
paths = (
{
closed = 1;
nodes = (
"30 247 OFFCURVE",
"30 420 OFFCURVE",
"30 530 CURVE SMOOTH",
"30 598 OFFCURVE",
"97 696 OFFCURVE",
"175 696 CURVE SMOOTH",
"259 696 OFFCURVE",
"310 602 OFFCURVE",
"310 534 CURVE SMOOTH",
"310 438 OFFCURVE",
"310 244 OFFCURVE",
"310 153 CURVE SMOOTH",
"310 90 OFFCURVE",
"250 1 OFFCURVE",
"175 1 CURVE SMOOTH",
"106 1 OFFCURVE",
"30 87 OFFCURVE",
"30 154 CURVE SMOOTH"
);
},
{
closed = 1;
nodes = (
"106 119 OFFCURVE",
"116 63 OFFCURVE",
"176 62 CURVE SMOOTH",
"241 61 OFFCURVE",
"245 118 OFFCURVE",
"245 162 CURVE SMOOTH",
"245 235 OFFCURVE",
"245 440 OFFCURVE",
"245 522 CURVE SMOOTH",
"245 566 OFFCURVE",
"234 626 OFFCURVE",
"175 625 CURVE SMOOTH",
"119 624 OFFCURVE",
"105 565 OFFCURVE",
"105 522 CURVE SMOOTH",
"105 444 OFFCURVE",
"103 240 OFFCURVE",
"105 163 CURVE SMOOTH"
);
}
);
width = 340;
}
);
unicode = 0030;
},
{
glyphname = one;
lastChange = "2019-09-19 12:35:09 +0000";
layers = (
{
layerId = "FC429158-EA96-492C-B709-B39596C20987";
paths = (
{
closed = 1;
nodes = (
"128 206 LINE",
"192 303 LINE",
"222 303 LINE",
"222 238 LINE",
"77 1 LINE",
"54 1 LINE",
"54 561 LINE",
"30 584 LINE",
"103 694 LINE",
"128 694 LINE"
);
}
);
width = 252;
}
);
unicode = 0031;
},
{
glyphname = two;
lastChange = "2019-09-19 12:37:58 +0000";
layers = (
{
layerId = "FC429158-EA96-492C-B709-B39596C20987";
paths = (
{
closed = 1;
nodes = (
"134 196 LINE",
"342 336 LINE",
"420 336 LINE",
"420 56 LINE",
"342 56 LINE",
"342 213 LINE",
"30 1 LINE",
"30 614 LINE",
"30 614 OFFCURVE",
"56 693 OFFCURVE",
"77 693 CURVE",
"106 694 OFFCURVE",
"134 693 OFFCURVE",
"134 693 CURVE"
);
}
);
width = 450;
}
);
unicode = 0032;
},
{
glyphname = three;
lastChange = "2019-09-19 12:42:42 +0000";
layers = (
{
layerId = "FC429158-EA96-492C-B709-B39596C20987";
paths = (
{
closed = 1;
nodes = (
"114 208 LINE",
"153 208 LINE",
"153 267 LINE",
"133 267 LINE",
"216 390 LINE",
"216 208 LINE",
"258 208 LINE",
"258 267 LINE",
"237 267 LINE",
"319 371 LINE",
"319 43 LINE",
"258 1 LINE",
"258 122 LINE",
"216 123 LINE",
"216 43 LINE",
"153 1 LINE",
"153 123 LINE",
"114 122 LINE",
"114 46 LINE",
"51 1 LINE",
"51 574 LINE",
"30 594 LINE",
"114 701 LINE"
);
}
);
width = 349;
}
);
unicode = 0033;
},
{
glyphname = four;
lastChange = "2019-09-19 12:47:24 +0000";
layers = (
{
layerId = "FC429158-EA96-492C-B709-B39596C20987";
paths = (
{
closed = 1;
nodes = (
"311 64 LINE",
"242 1 LINE",
"242 519 LINE",
"166 438 LINE",
"30 602 LINE",
"105 699 LINE",
"205 570 LINE",
"311 699 LINE"
);
}
);
width = 341;
}
);
unicode = 0034;
},
{
glyphname = five;
lastChange = "2019-09-19 12:49:44 +0000";
layers = (
{
layerId = "FC429158-EA96-492C-B709-B39596C20987";
paths = (
{
closed = 1;
nodes = (
"298 71 LINE",
"233 1 LINE",
"233 535 LINE",
"163 434 LINE",
"126 483 LINE",
"126 71 LINE",
"43 1 LINE",
"49 576 LINE",
"30 601 LINE",
"91 699 LINE",
"125 699 LINE",
"197 559 LINE",
"277 699 LINE",
"298 699 LINE"
);
}
);
width = 328;
}
);
unicode = 0035;
},
{
glyphname = eight;
lastChange = "2019-09-19 12:51:51 +0000";
layers = (
{
layerId = "FC429158-EA96-492C-B709-B39596C20987";
paths = (
{
closed = 1;
nodes = (
"30 641 LINE",
"62 699 LINE",
"316 699 LINE",
"456 552 LINE",
"456 484 LINE",
"362 395 LINE",
"490 262 LINE",
"490 164 LINE",
"419 145 LINE",
"291 1 LINE",
"145 122 LINE",
"30 16 LINE"
);
},
{
closed = 1;
nodes = (
"281 412 LINE",
"360 486 LINE",
"180 652 LINE",
"104 651 LINE",
"103 559 LINE"
);
},
{
closed = 1;
nodes = (
"305 107 LINE",
"378 186 LINE",
"168 367 LINE",
"107 365 LINE",
"107 265 LINE"
);
}
);
width = 520;
}
);
unicode = 0038;
},
